<svg class="img-fluid" id="outputsvg" xmlns="http://www.w3.org/2000/svg" style="transform: none; transform-origin: 50% 50%; cursor: move; transition: none 0s ease 0s;" width="239" height="49" viewBox="0 0 2390 490"><g id="l45dQgPL40ZpfSAxoMQCUbf" fill="rgb(255,255,255)" style="transform: none;"><g style="transform: none;"><path id="pcBL74Sgh" d="M0 245 l0 -245 1195 0 1195 0 0 245 0 245 -1195 0 -1195 0 0 -245z"></path></g></g><g id="l3HxHB40iqVhjM6dva47oeF" fill="rgb(243,21,21)" style="transform: none;"><g style="transform: none;"><path id="p9NqTAwWN" d="M2097 413 c-4 -3 -7 -17 -7 -31 0 -22 3 -24 30 -19 16 4 32 2 35 -3 7 -11 -40 -125 -62 -151 -24 -28 -15 -39 31 -39 43 0 45 1 44 28 -1 16 4 37 10 48 10 18 11 17 22 -10 7 -20 7 -32 0 -41 -8 -9 -5 -14 12 -19 36 -9 48 -7 48 9 0 8 -4 15 -8 15 -5 0 -23 38 -42 85 -18 47 -42 97 -52 110 -19 24 -47 32 -61 18z"></path><path id="pNa9FjimN" d="M1600 391 c0 -6 5 -13 10 -16 14 -9 13 -172 -2 -181 -8 -5 -9 8 -4 51 9 77 -6 95 -81 95 l-53 0 0 -35 c0 -39 18 -47 38 -15 12 20 52 28 52 10 0 -5 -16 -18 -37 -27 -44 -22 -58 -52 -37 -82 14 -20 23 -21 139 -20 107 1 127 4 144 21 52 47 6 158 -60 144 -24 -4 -29 -2 -29 13 0 10 7 22 16 25 8 3 12 10 9 16 -8 13 -105 13 -105 1z m124 -97 c17 -45 -1 -98 -30 -87 -14 5 -20 83 -7 96 11 12 31 7 37 -9z m-154 -79 c0 -8 -2 -15 -4 -15 -2 0 -11 -3 -20 -6 -10 -4 -16 -1 -16 9 0 14 13 24 33 26 4 1 7 -6 7 -14z"></path><path id="p7JoFxznp" d="M363 347 c-23 -12 -42 -27 -43 -32 0 -6 16 -34 35 -62 41 -61 41 -63 16 -63 -10 0 -21 9 -24 20 -8 31 -29 24 -25 -7 3 -27 5 -28 76 -31 47 -2 72 1 72 8 0 6 -16 34 -35 63 -19 28 -35 56 -35 61 0 17 35 35 68 36 34 0 43 14 16 24 -30 11 -79 4 -121 -17z"></path><path id="pebmIAEJK" d="M535 331 c-39 -17 -58 -48 -52 -87 9 -53 24 -66 70 -62 l39 4 -5 -49 -4 -48 31 3 31 3 3 123 c2 115 1 122 -15 114 -10 -5 -27 -6 -38 -1 -25 10 -35 10 -60 0z m53 -74 c3 -42 1 -47 -17 -47 -24 0 -37 36 -27 76 5 17 12 24 24 22 13 -2 18 -15 20 -51z"></path><path id="ppN1ODE2O" d="M728 333 c-34 -5 -58 -38 -58 -79 0 -45 27 -74 77 -81 36 -5 45 -2 68 22 24 23 27 32 22 68 -4 26 -14 49 -27 59 -22 18 -30 19 -82 11z m46 -39 c19 -50 -5 -119 -32 -92 -13 13 -17 90 -5 101 11 12 31 7 37 -9z"></path><path id="p1CDUsgj11" d="M904 329 c-21 -6 -36 -19 -44 -39 -35 -85 61 -156 134 -99 36 28 37 89 1 124 -26 26 -41 29 -91 14z m54 -69 c1 -25 -2 -52 -8 -60 -9 -13 -12 -12 -25 4 -26 35 -16 110 14 104 11 -2 17 -16 19 -48z"></path><path id="p16SkSELcz" d="M1240 333 c-35 -13 -50 -37 -50 -78 0 -57 42 -94 84 -73 17 10 18 7 14 -41 l-5 -51 33 0 34 0 0 120 c0 118 0 120 -22 119 -13 0 -34 2 -48 5 -14 3 -32 2 -40 -1z m50 -74 c0 -43 -3 -50 -17 -47 -12 2 -19 14 -21 37 -4 41 3 61 23 61 11 0 15 -12 15 -51z"></path><path id="pyT2DWYXM" d="M1930 322 c-18 -15 -20 -21 -11 -45 6 -15 16 -27 23 -27 6 0 3 -6 -7 -14 -23 -17 -14 -43 20 -56 67 -25 105 4 105 79 0 29 5 51 12 53 6 2 8 10 4 16 -9 15 -53 16 -62 1 -4 -8 -9 -8 -17 0 -16 16 -42 13 -67 -7z m70 -45 c0 -20 -1 -20 -16 -5 -9 9 -13 21 -9 27 10 16 25 3 25 -22z m-3 -52 c8 -22 -6 -33 -17 -15 -13 20 -12 30 0 30 6 0 13 -7 17 -15z"></path><path id="piD822tOb" d="M166 308 c-40 -57 3 -138 72 -138 29 0 62 29 62 56 0 22 -4 24 -46 24 -37 0 -45 3 -42 16 5 28 35 41 58 26 29 -18 46 -5 24 19 -26 29 -108 27 -128 -3z m74 -92 c0 -8 -4 -18 -10 -21 -5 -3 -10 -4 -10 -1 0 2 -3 11 -6 20 -4 11 -1 16 10 16 9 0 16 -6 16 -14z"></path><path id="poj5pNr3C" d="M1035 250 l0 -80 65 3 c63 2 65 3 68 30 4 33 -24 49 -43 24 -22 -30 -28 -18 -23 43 l4 60 -35 0 -36 0 0 -80z"></path><path id="ppwWfib0a" d="M1367 253 c0 -44 6 -79 12 -81 7 -2 6 -10 -2 -23 -9 -15 -8 -22 6 -36 16 -16 18 -16 34 0 14 14 15 21 6 36 -7 11 -8 21 -4 23 5 2 10 38 13 81 l3 77 -35 0 -35 0 2 -77z"></path><path id="pHEo580QT" d="M1825 210 l0 -120 32 0 32 0 3 120 3 120 -35 0 -35 0 0 -120z"></path></g></g></svg>