<?xml version="1.0" encoding="UTF-8" standalone="no" ?>
<!DOCTYPE svg PUBLIC "-//W3C//DTD SVG 1.1//EN" "http://www.w3.org/Graphics/SVG/1.1/DTD/svg11.dtd">
<svg xmlns="http://www.w3.org/2000/svg" xmlns:xlink="http://www.w3.org/1999/xlink" version="1.1" width="1080" height="1080" viewBox="0 0 1080 1080" xml:space="preserve">
<desc>Created with Fabric.js 5.2.4</desc>
<defs>
</defs>
<g transform="matrix(1 0 0 1 540 540)" id="3eedf39e-8eec-4704-99ba-4aa0e31679d8"  >
</g>
<g transform="matrix(1 0 0 1 540 540)" id="28a25a50-d587-41bc-9511-5ecec5a5b4eb"  >
<rect style="stroke: none; stroke-width: 1; stroke-dasharray: none; stroke-linecap: butt; stroke-dashoffset: 0; stroke-linejoin: miter; stroke-miterlimit: 4; fill: rgb(255,255,255); fill-rule: nonzero; opacity: 1; visibility: hidden;" vector-effect="non-scaling-stroke"  x="-540" y="-540" rx="0" ry="0" width="1080" height="1080" />
</g>
<g transform="matrix(0.1 0 0 0.1 636.48 544.05)"  >
<path style="stroke: none; stroke-width: 1; stroke-dasharray: none; stroke-linecap: butt; stroke-dashoffset: 0; stroke-linejoin: miter; stroke-miterlimit: 4; fill: rgb(243,21,21); fill-rule: nonzero; opacity: 1;" vector-effect="non-scaling-stroke"  transform=" translate(-2170.05, -294.94)" d="M 2097 413 C 2093 410 2090 396 2090 382 C 2090 360 2093 358 2120 363 C 2136 367 2152 365 2155 360 C 2162 349 2115 235 2093 209 C 2069 181 2078 170 2124 170 C 2167 170 2169 171 2168 198 C 2167 214 2172 235 2178 246 C 2188 264 2189 263 2200 236 C 2207 216 2207 204 2200 195 C 2192 186 2195 181 2212 176 C 2248 167 2260 169 2260 185 C 2260 193 2256 200 2252 200 C 2247 200 2229 238 2210 285 C 2192 332 2168 382 2158 395 C 2139 419 2111 427 2097 413 z" stroke-linecap="round" />
</g>
<g transform="matrix(0.1 0 0 0.1 582.54 543.08)"  >
<path style="stroke: none; stroke-width: 1; stroke-dasharray: none; stroke-linecap: butt; stroke-dashoffset: 0; stroke-linejoin: miter; stroke-miterlimit: 4; fill: rgb(243,21,21); fill-rule: nonzero; opacity: 1;" vector-effect="non-scaling-stroke"  transform=" translate(-1630.72, -285.31)" d="M 1600 391 C 1600 385 1605 378 1610 375 C 1624 366 1623 203 1608 194 C 1600 189 1599 202 1604 245 C 1613 322 1598 340 1523 340 L 1470 340 L 1470 305 C 1470 266 1488 258 1508 290 C 1520 310 1560 318 1560 300 C 1560 295 1544 282 1523 273 C 1479 251 1465 221 1486 191 C 1500 171 1509 170 1625 171 C 1732 172 1752 175 1769 192 C 1821 239 1775 350 1709 336 C 1685 332 1680 334 1680 349 C 1680 359 1687 371 1696 374 C 1704 377 1708 384 1705 390 C 1697 403 1600 403 1600 391 z M 1724 294 C 1741 249 1723 196 1694 207 C 1680 212 1674 290 1687 303 C 1698 315 1718 310 1724 294 z M 1570 215 C 1570 207 1568 200 1566 200 C 1564 200 1555 197 1546 194 C 1536 190 1530 193 1530 203 C 1530 217 1543 227 1563 229 C 1567 230 1570 223 1570 215 z" stroke-linecap="round" />
</g>
<g transform="matrix(0.1 0 0 0.1 460.46 541.58)"  >
<path style="stroke: none; stroke-width: 1; stroke-dasharray: none; stroke-linecap: butt; stroke-dashoffset: 0; stroke-linejoin: miter; stroke-miterlimit: 4; fill: rgb(243,21,21); fill-rule: nonzero; opacity: 1;" vector-effect="non-scaling-stroke"  transform=" translate(-409.91, -270.28)" d="M 363 347 C 340 335 321 320 320 315 C 320 309 336 281 355 253 C 396 192 396 190 371 190 C 361 190 350 199 347 210 C 339 241 318 234 322 203 C 325 176 327 175 398 172 C 445 170 470 173 470 180 C 470 186 454 214 435 243 C 416 271 400 299 400 304 C 400 321 435 339 468 340 C 502 340 511 354 484 364 C 454 375 405 368 363 347 z" stroke-linecap="round" />
</g>
<g transform="matrix(0.1 0 0 0.1 476 535.93)"  >
<path style="stroke: none; stroke-width: 1; stroke-dasharray: none; stroke-linecap: butt; stroke-dashoffset: 0; stroke-linejoin: miter; stroke-miterlimit: 4; fill: rgb(243,21,21); fill-rule: nonzero; opacity: 1;" vector-effect="non-scaling-stroke"  transform=" translate(-565.33, -213.75)" d="M 535 331 C 496 314 477 283 483 244 C 492 191 507 178 553 182 L 592 186 L 587 137 L 583 89 L 614 92 L 645 95 L 648 218 C 650 333 649 340 633 332 C 623 327 606 326 595 331 C 570 341 560 341 535 331 z M 588 257 C 591 215 589 210 571 210 C 547 210 534 246 544 286 C 549 303 556 310 568 308 C 581 306 586 293 588 257 z" stroke-linecap="round" />
</g>
<g transform="matrix(0.1 0 0 0.1 494.92 540)"  >
<path style="stroke: none; stroke-width: 1; stroke-dasharray: none; stroke-linecap: butt; stroke-dashoffset: 0; stroke-linejoin: miter; stroke-miterlimit: 4; fill: rgb(243,21,21); fill-rule: nonzero; opacity: 1;" vector-effect="non-scaling-stroke"  transform=" translate(-754.52, -254.37)" d="M 728 333 C 694 328 670 295 670 254 C 670 209 697 180 747 173 C 783 168 792 171 815 195 C 839 218 842 227 837 263 C 833 289 823 312 810 322 C 788 340 780 341 728 333 z M 774 294 C 793 244 769 175 742 202 C 729 215 725 292 737 303 C 748 315 768 310 774 294 z" stroke-linecap="round" />
</g>
<g transform="matrix(0.1 0 0 0.1 513.18 539.98)"  >
<path style="stroke: none; stroke-width: 1; stroke-dasharray: none; stroke-linecap: butt; stroke-dashoffset: 0; stroke-linejoin: miter; stroke-miterlimit: 4; fill: rgb(243,21,21); fill-rule: nonzero; opacity: 1;" vector-effect="non-scaling-stroke"  transform=" translate(-937.04, -254.26)" d="M 904 329 C 883 323 868 310 860 290 C 825 205 921 134 994 191 C 1030 219 1031 280 995 315 C 969 341 954 344 904 329 z M 958 260 C 959 235 956 208 950 200 C 941 187 938 188 925 204 C 899 239 909 314 939 308 C 950 306 956 292 958 260 z" stroke-linecap="round" />
</g>
<g transform="matrix(0.1 0 0 0.1 546.47 535.85)"  >
<path style="stroke: none; stroke-width: 1; stroke-dasharray: none; stroke-linecap: butt; stroke-dashoffset: 0; stroke-linejoin: miter; stroke-miterlimit: 4; fill: rgb(243,21,21); fill-rule: nonzero; opacity: 1;" vector-effect="non-scaling-stroke"  transform=" translate(-1270, -212.91)" d="M 1240 333 C 1205 320 1190 296 1190 255 C 1190 198 1232 161 1274 182 C 1291 192 1292 189 1288 141 L 1283 90 L 1316 90 L 1350 90 L 1350 210 C 1350 328 1350 330 1328 329 C 1315 329 1294 331 1280 334 C 1266 337 1248 336 1240 333 z M 1290 259 C 1290 216 1287 209 1273 212 C 1261 214 1254 226 1252 249 C 1248 290 1255 310 1275 310 C 1286 310 1290 298 1290 259 z" stroke-linecap="round" />
</g>
<g transform="matrix(0.1 0 0 0.1 619.06 540.1)"  >
<path style="stroke: none; stroke-width: 1; stroke-dasharray: none; stroke-linecap: butt; stroke-dashoffset: 0; stroke-linejoin: miter; stroke-miterlimit: 4; fill: rgb(243,21,21); fill-rule: nonzero; opacity: 1;" vector-effect="non-scaling-stroke"  transform=" translate(-1995.93, -255.49)" d="M 1930 322 C 1912 307 1910 301 1919 277 C 1925 262 1935 250 1942 250 C 1948 250 1945 244 1935 236 C 1912 219 1921 193 1955 180 C 2022 155 2060 184 2060 259 C 2060 288 2065 310 2072 312 C 2078 314 2080 322 2076 328 C 2067 343 2023 344 2014 329 C 2010 321 2005 321 1997 329 C 1981 345 1955 342 1930 322 z M 2000 277 C 2000 257 1999 257 1984 272 C 1975 281 1971 293 1975 299 C 1985 315 2000 302 2000 277 z M 1997 225 C 2005 203 1991 192 1980 210 C 1967 230 1968 240 1980 240 C 1986 240 1993 233 1997 225 z" stroke-linecap="round" />
</g>
<g transform="matrix(0.1 0 0 0.1 442.2 539.64)"  >
<path style="stroke: none; stroke-width: 1; stroke-dasharray: none; stroke-linecap: butt; stroke-dashoffset: 0; stroke-linejoin: miter; stroke-miterlimit: 4; fill: rgb(243,21,21); fill-rule: nonzero; opacity: 1;" vector-effect="non-scaling-stroke"  transform=" translate(-227.33, -250.83)" d="M 166 308 C 126 251 169 170 238 170 C 267 170 300 199 300 226 C 300 248 296 250 254 250 C 217 250 209 253 212 266 C 217 294 247 307 270 292 C 299 274 316 287 294 311 C 268 340 186 338 166 308 z M 240 216 C 240 208 236 198 230 195 C 225 192 220 191 220 194 C 220 196 217 205 214 214 C 210 225 213 230 224 230 C 233 230 240 224 240 216 z" stroke-linecap="round" />
</g>
<g transform="matrix(0.1 0 0 0.1 529.64 539.56)"  >
<path style="stroke: none; stroke-width: 1; stroke-dasharray: none; stroke-linecap: butt; stroke-dashoffset: 0; stroke-linejoin: miter; stroke-miterlimit: 4; fill: rgb(243,21,21); fill-rule: nonzero; opacity: 1;" vector-effect="non-scaling-stroke"  transform=" translate(-1101.69, -250)" d="M 1035 250 L 1035 170 L 1100 173 C 1163 175 1165 176 1168 203 C 1172 236 1144 252 1125 227 C 1103 197 1097 209 1102 270 L 1106 330 L 1071 330 L 1035 330 L 1035 250 z" stroke-linecap="round" />
</g>
<g transform="matrix(0.1 0 0 0.1 559.47 536.11)"  >
<path style="stroke: none; stroke-width: 1; stroke-dasharray: none; stroke-linecap: butt; stroke-dashoffset: 0; stroke-linejoin: miter; stroke-miterlimit: 4; fill: rgb(243,21,21); fill-rule: nonzero; opacity: 1;" vector-effect="non-scaling-stroke"  transform=" translate(-1400, -215.5)" d="M 1367 253 C 1367 209 1373 174 1379 172 C 1386 170 1385 162 1377 149 C 1368 134 1369 127 1383 113 C 1399 97 1401 97 1417 113 C 1431 127 1432 134 1423 149 C 1416 160 1415 170 1419 172 C 1424 174 1429 210 1432 253 L 1435 330 L 1400 330 L 1365 330 L 1367 253 z" stroke-linecap="round" />
</g>
<g transform="matrix(0.1 0 0 0.1 605.47 535.56)"  >
<path style="stroke: none; stroke-width: 1; stroke-dasharray: none; stroke-linecap: butt; stroke-dashoffset: 0; stroke-linejoin: miter; stroke-miterlimit: 4; fill: rgb(243,21,21); fill-rule: nonzero; opacity: 1;" vector-effect="non-scaling-stroke"  transform=" translate(-1860, -210)" d="M 1825 210 L 1825 90 L 1857 90 L 1889 90 L 1892 210 L 1895 330 L 1860 330 L 1825 330 L 1825 210 z" stroke-linecap="round" />
</g>
</svg>